<?xml version="1.0" encoding="UTF-8"?>
<svg xmlns="http://www.w3.org/2000/svg" xmlns:xlink="http://www.w3.org/1999/xlink" width="128pt" height="128pt" viewBox="0 0 128 128" version="1.1">
<g id="surface507575">
<path style=" stroke:none;fill-rule:nonzero;fill:#9f815d;fill-opacity:1;" d="M 26 8 C 21.582031 8 18 11.582031 18 16 L 18 112 C 18 116.417969 21.582031 120 26 120 L 100 120 C 103.3125 120 106 117.3125 106 114 L 106 107.640625 C 108.390625 106.792969 109.992188 104.535156 110 102 L 110 14 C 110 10.6875 107.3125 8 104 8 Z M 26 12 L 104 12 C 105.105469 12 106 12.894531 106 14 L 106 102 C 106 103.105469 105.105469 104 104 104 L 42 104 L 42 34 C 42 32.894531 41.105469 32 40 32 C 38.894531 32 38 32.894531 38 34 L 38 104 L 26 104 C 24.578125 104.050781 23.195312 104.488281 22 105.261719 L 22 16 C 22 13.789062 23.789062 12 26 12 Z M 28 16 C 26.894531 16 26 16.894531 26 18 C 26 19.105469 26.894531 20 28 20 L 32 20 C 33.105469 20 34 19.105469 34 18 C 34 16.894531 33.105469 16 32 16 Z M 40 16 C 38.894531 16 38 16.894531 38 18 L 38 26 C 38 27.105469 38.894531 28 40 28 C 41.105469 28 42 27.105469 42 26 L 42 18 C 42 16.894531 41.105469 16 40 16 Z M 28 26 C 26.894531 26 26 26.894531 26 28 C 26 29.105469 26.894531 30 28 30 L 32 30 C 33.105469 30 34 29.105469 34 28 C 34 26.894531 33.105469 26 32 26 Z M 68 34 C 66.894531 34 66 34.894531 66 36 L 66 44 L 58 44 C 56.894531 44 56 44.894531 56 46 L 56 54 C 56 55.105469 56.894531 56 58 56 L 66 56 L 66 80 C 66 81.105469 66.894531 82 68 82 L 76 82 C 77.105469 82 78 81.105469 78 80 L 78 56 L 86 56 C 87.105469 56 88 55.105469 88 54 L 88 46 C 88 44.894531 87.105469 44 86 44 L 78 44 L 78 36 C 78 34.894531 77.105469 34 76 34 Z M 28 36 C 26.894531 36 26 36.894531 26 38 C 26 39.105469 26.894531 40 28 40 L 32 40 C 33.105469 40 34 39.105469 34 38 C 34 36.894531 33.105469 36 32 36 Z M 70 38 L 74 38 L 74 46 C 74 47.105469 74.894531 48 76 48 L 84 48 L 84 52 L 76 52 C 74.894531 52 74 52.894531 74 54 L 74 78 L 70 78 L 70 54 C 70 52.894531 69.105469 52 68 52 L 60 52 L 60 48 L 68 48 C 69.105469 48 70 47.105469 70 46 Z M 28 46 C 26.894531 46 26 46.894531 26 48 C 26 49.105469 26.894531 50 28 50 L 32 50 C 33.105469 50 34 49.105469 34 48 C 34 46.894531 33.105469 46 32 46 Z M 28 56 C 26.894531 56 26 56.894531 26 58 C 26 59.105469 26.894531 60 28 60 L 32 60 C 33.105469 60 34 59.105469 34 58 C 34 56.894531 33.105469 56 32 56 Z M 28 66 C 26.894531 66 26 66.894531 26 68 C 26 69.105469 26.894531 70 28 70 L 32 70 C 33.105469 70 34 69.105469 34 68 C 34 66.894531 33.105469 66 32 66 Z M 28 76 C 26.894531 76 26 76.894531 26 78 C 26 79.105469 26.894531 80 28 80 L 32 80 C 33.105469 80 34 79.105469 34 78 C 34 76.894531 33.105469 76 32 76 Z M 28 86 C 26.894531 86 26 86.894531 26 88 C 26 89.105469 26.894531 90 28 90 L 32 90 C 33.105469 90 34 89.105469 34 88 C 34 86.894531 33.105469 86 32 86 Z M 28 96 C 26.894531 96 26 96.894531 26 98 C 26 99.105469 26.894531 100 28 100 L 32 100 C 33.105469 100 34 99.105469 34 98 C 34 96.894531 33.105469 96 32 96 Z M 26 108 L 102 108 L 102 114 C 102 115.105469 101.105469 116 100 116 L 26 116 C 23.789062 116 22 114.210938 22 112 C 22.230469 109.894531 23.894531 108.230469 26 108 Z M 26 108 "/>
</g>
</svg>
