<?xml version="1.0" encoding="UTF-8"?>
<svg xmlns="http://www.w3.org/2000/svg" xmlns:xlink="http://www.w3.org/1999/xlink" width="128pt" height="128pt" viewBox="0 0 128 128" version="1.1">
<g id="surface509067">
<path style=" stroke:none;fill-rule:nonzero;fill:#9f815d;fill-opacity:1;" d="M 62 2 L 62 8 L 56 8 L 56 12 L 62 12 L 62 21.511719 C 46.765625 51.089844 40.332031 53.824219 39.746094 54.015625 C 38.761719 54.136719 38 54.980469 38 56 C 38 57.105469 38.894531 58 40 58 L 42 58 L 42 60.628906 L 3.277344 75.660156 C 2.507812 75.957031 2 76.703125 2 77.527344 L 2 87.527344 C 2 88.1875 2.328125 88.804688 2.871094 89.175781 C 3.210938 89.40625 3.601562 89.527344 4 89.527344 C 4.242188 89.527344 4.488281 89.480469 4.722656 89.390625 L 6 88.894531 L 6 122 C 6 123.105469 6.894531 124 8 124 L 120 124 C 121.105469 124 122 123.105469 122 122 L 122 88.894531 L 123.277344 89.390625 C 123.511719 89.480469 123.761719 89.523438 124.003906 89.523438 C 124.402344 89.523438 124.792969 89.40625 125.132812 89.175781 C 125.675781 88.804688 126 88.1875 126 87.527344 L 126 77.527344 C 126 76.703125 125.492188 75.957031 124.722656 75.660156 L 86 60.628906 L 86 58 L 88 58 C 89.105469 58 90 57.105469 90 56 C 90 54.980469 89.238281 54.136719 88.253906 54.015625 C 87.667969 53.824219 81.234375 51.089844 66 21.511719 L 66 12 L 72 12 L 72 8 L 66 8 L 66 2 Z M 64 26.335938 C 72.265625 42.019531 78.054688 49.980469 81.917969 54 L 78 54 C 76.894531 54 76 54.894531 76 56 C 76 57.105469 76.894531 58 78 58 L 82 58 L 82 120 L 74 120 L 74 96 C 74 94.894531 73.105469 94 72 94 L 56 94 C 54.894531 94 54 94.894531 54 96 L 54 120 L 46 120 L 46 58 L 70 58 C 71.105469 58 72 57.105469 72 56 C 72 54.894531 71.105469 54 70 54 L 46.082031 54 C 49.945312 49.980469 55.734375 42.019531 64 26.335938 Z M 86 64.921875 L 122 78.894531 L 122 84.605469 L 86 70.628906 Z M 42 64.925781 L 42 70.628906 L 6 84.605469 L 6 78.894531 Z M 64 68 C 59.589844 68 56 71.589844 56 76 C 56 80.410156 59.589844 84 64 84 C 68.410156 84 72 80.410156 72 76 C 72 71.589844 68.410156 68 64 68 Z M 64 72 C 66.207031 72 68 73.792969 68 76 C 68 78.207031 66.207031 80 64 80 C 61.792969 80 60 78.207031 60 76 C 60 73.792969 61.792969 72 64 72 Z M 42 74.921875 L 42 120 L 10 120 L 10 87.34375 Z M 86 74.921875 L 118 87.34375 L 118 120 L 86 120 Z M 26 88 C 25.53125 88 25.0625 88.164062 24.683594 88.492188 C 24.492188 88.660156 20 92.660156 20 98.75 L 20 102 C 20 103.105469 20.894531 104 22 104 L 30 104 C 31.105469 104 32 103.105469 32 102 L 32 98.75 C 32 92.660156 27.507812 88.660156 27.316406 88.492188 C 26.9375 88.164062 26.46875 88 26 88 Z M 102 88 C 101.53125 88 101.0625 88.164062 100.683594 88.492188 C 100.492188 88.660156 96 92.660156 96 98.75 L 96 102 C 96 103.105469 96.894531 104 98 104 L 106 104 C 107.105469 104 108 103.105469 108 102 L 108 98.75 C 108 92.660156 103.507812 88.660156 103.316406 88.492188 C 102.9375 88.164062 102.46875 88 102 88 Z M 26 93.035156 C 26.925781 94.320312 28 96.335938 28 98.75 L 28 100 L 24 100 L 24 98.75 C 24 96.328125 25.074219 94.320312 26 93.035156 Z M 102 93.035156 C 102.925781 94.320312 104 96.335938 104 98.75 L 104 100 L 100 100 L 100 98.75 C 100 96.328125 101.074219 94.320312 102 93.035156 Z M 58 98 L 70 98 L 70 120 L 58 120 Z M 16 108 C 14.894531 108 14 108.894531 14 110 L 14 114 C 14 115.105469 14.894531 116 16 116 C 17.105469 116 18 115.105469 18 114 L 18 110 C 18 108.894531 17.105469 108 16 108 Z M 26 108 C 24.894531 108 24 108.894531 24 110 L 24 114 C 24 115.105469 24.894531 116 26 116 C 27.105469 116 28 115.105469 28 114 L 28 110 C 28 108.894531 27.105469 108 26 108 Z M 36 108 C 34.894531 108 34 108.894531 34 110 L 34 114 C 34 115.105469 34.894531 116 36 116 C 37.105469 116 38 115.105469 38 114 L 38 110 C 38 108.894531 37.105469 108 36 108 Z M 92 108 C 90.894531 108 90 108.894531 90 110 L 90 114 C 90 115.105469 90.894531 116 92 116 C 93.105469 116 94 115.105469 94 114 L 94 110 C 94 108.894531 93.105469 108 92 108 Z M 102 108 C 100.894531 108 100 108.894531 100 110 L 100 114 C 100 115.105469 100.894531 116 102 116 C 103.105469 116 104 115.105469 104 114 L 104 110 C 104 108.894531 103.105469 108 102 108 Z M 112 108 C 110.894531 108 110 108.894531 110 110 L 110 114 C 110 115.105469 110.894531 116 112 116 C 113.105469 116 114 115.105469 114 114 L 114 110 C 114 108.894531 113.105469 108 112 108 Z M 112 108 "/>
</g>
</svg>
