<?xml version="1.0" encoding="UTF-8"?>
<svg xmlns="http://www.w3.org/2000/svg" xmlns:xlink="http://www.w3.org/1999/xlink" width="100pt" height="100pt" viewBox="0 0 100 100" version="1.1">
<g id="surface507915">
<path style=" stroke:none;fill-rule:nonzero;fill:#9f815d;fill-opacity:1;" d="M 18 6 C 14.710938 6 12 8.710938 12 12 C 12 12.25 12.046875 12.492188 12.078125 12.734375 C 10.90625 13.03125 9.84375 13.414062 8.921875 13.921875 C 7.523438 14.6875 6.210938 15.882812 6.03125 17.609375 C 6.007812 17.742188 6 17.867188 6 18 L 6 82 C 6 83.226562 6.640625 84.28125 7.40625 85.007812 C 8.179688 85.742188 9.117188 86.257812 10.1875 86.6875 C 10.773438 86.921875 11.414062 87.117188 12.078125 87.289062 C 12.046875 87.53125 12 87.757812 12 88 C 12 91.289062 14.710938 94 18 94 C 21.289062 94 24 91.289062 24 88 C 24 87.757812 23.953125 87.53125 23.921875 87.289062 C 24.585938 87.117188 25.226562 86.921875 25.8125 86.6875 C 26.882812 86.257812 27.820312 85.742188 28.59375 85.007812 C 29.359375 84.28125 30 83.226562 30 82 L 70 82 C 70 83.226562 70.640625 84.28125 71.40625 85.007812 C 72.179688 85.742188 73.117188 86.257812 74.1875 86.6875 C 74.773438 86.921875 75.414062 87.117188 76.078125 87.289062 C 76.046875 87.53125 76 87.757812 76 88 C 76 91.289062 78.710938 94 82 94 C 85.289062 94 88 91.289062 88 88 C 88 87.757812 87.953125 87.53125 87.921875 87.289062 C 88.585938 87.117188 89.226562 86.921875 89.8125 86.6875 C 90.882812 86.257812 91.820312 85.742188 92.59375 85.007812 C 93.359375 84.28125 94 83.226562 94 82 L 94 18 C 94 17.867188 93.992188 17.726562 93.96875 17.59375 C 93.78125 15.875 92.46875 14.6875 91.078125 13.921875 C 90.15625 13.414062 89.09375 13.03125 87.929688 12.734375 C 87.953125 12.492188 88 12.25 88 12 C 88 8.710938 85.289062 6 82 6 C 78.710938 6 76 8.710938 76 12 C 76 12.25 76.046875 12.492188 76.070312 12.734375 C 74.90625 13.03125 73.84375 13.414062 72.921875 13.921875 C 71.523438 14.6875 70.210938 15.882812 70.03125 17.609375 C 70.007812 17.742188 70 17.867188 70 18 L 70 22 L 30 22 L 30 18 C 30 17.867188 29.992188 17.726562 29.96875 17.59375 C 29.78125 15.875 28.46875 14.6875 27.078125 13.921875 C 26.15625 13.414062 25.09375 13.03125 23.929688 12.734375 C 23.953125 12.492188 24 12.25 24 12 C 24 8.710938 21.289062 6 18 6 Z M 18 10 C 19.125 10 20 10.875 20 12 C 20 13.125 19.125 14 18 14 C 17.328125 14 16.78125 13.671875 16.421875 13.1875 C 16.382812 13.125 16.34375 13.070312 16.304688 13.015625 C 16.125 12.71875 16 12.382812 16 12 C 16 10.875 16.875 10 18 10 Z M 82 10 C 83.125 10 84 10.875 84 12 C 84 13.125 83.125 14 82 14 C 81.328125 14 80.78125 13.671875 80.414062 13.1875 C 80.382812 13.125 80.34375 13.070312 80.304688 13.015625 C 80.125 12.71875 80 12.382812 80 12 C 80 10.875 80.875 10 82 10 Z M 14 16.429688 C 15.070312 17.390625 16.460938 18 18 18 C 19.539062 18 20.929688 17.390625 22 16.429688 C 23.304688 16.695312 24.453125 17.039062 25.148438 17.421875 C 25.664062 17.710938 25.851562 17.914062 25.9375 18 C 25.90625 18.03125 25.90625 18.039062 25.84375 18.109375 C 25.601562 18.335938 25.070312 18.679688 24.328125 18.96875 C 22.84375 19.5625 20.546875 20 18 20 C 15.453125 20 13.15625 19.5625 11.671875 18.96875 C 10.929688 18.679688 10.398438 18.335938 10.15625 18.109375 C 10.09375 18.039062 10.09375 18.03125 10.0625 18 C 10.148438 17.914062 10.335938 17.710938 10.851562 17.421875 C 11.546875 17.039062 12.695312 16.695312 14 16.429688 Z M 78 16.429688 C 79.070312 17.390625 80.460938 18 82 18 C 83.539062 18 84.929688 17.390625 86 16.429688 C 87.304688 16.695312 88.453125 17.039062 89.148438 17.421875 C 89.664062 17.710938 89.851562 17.914062 89.9375 18 C 89.90625 18.03125 89.90625 18.039062 89.84375 18.109375 C 89.601562 18.335938 89.070312 18.679688 88.328125 18.96875 C 86.84375 19.5625 84.546875 20 82 20 C 79.453125 20 77.15625 19.5625 75.671875 18.96875 C 74.929688 18.679688 74.398438 18.335938 74.15625 18.109375 C 74.09375 18.039062 74.09375 18.03125 74.0625 18 C 74.148438 17.914062 74.335938 17.710938 74.851562 17.421875 C 75.546875 17.039062 76.695312 16.695312 78 16.429688 Z M 10 22.59375 C 10.0625 22.625 10.117188 22.664062 10.1875 22.6875 C 12.320312 23.539062 15.023438 24 18 24 C 20.976562 24 23.679688 23.539062 25.8125 22.6875 C 25.882812 22.664062 25.9375 22.625 26 22.59375 L 26 81.9375 C 25.984375 81.953125 25.953125 82 25.84375 82.101562 C 25.601562 82.335938 25.070312 82.679688 24.328125 82.96875 C 22.84375 83.5625 20.546875 84 18 84 C 15.453125 84 13.15625 83.5625 11.671875 82.96875 C 10.929688 82.679688 10.398438 82.335938 10.15625 82.101562 C 10.046875 82 10.015625 81.953125 10 81.9375 Z M 74 22.59375 C 74.0625 22.625 74.117188 22.664062 74.1875 22.6875 C 76.320312 23.539062 79.023438 24 82 24 C 84.976562 24 87.679688 23.539062 89.8125 22.6875 C 89.882812 22.664062 89.9375 22.625 90 22.59375 L 90 81.9375 C 89.984375 81.953125 89.953125 82 89.84375 82.101562 C 89.601562 82.335938 89.070312 82.679688 88.328125 82.96875 C 86.84375 83.5625 84.546875 84 82 84 C 79.453125 84 77.15625 83.5625 75.671875 82.96875 C 74.929688 82.679688 74.398438 82.335938 74.15625 82.101562 C 74.046875 82 74.015625 81.953125 74 81.9375 Z M 30 26 L 70 26 L 70 78 L 30 78 Z M 36 32 L 36 36 L 64 36 L 64 32 Z M 42 44 L 42 48 L 64 48 L 64 44 Z M 36 56 L 36 60 L 64 60 L 64 56 Z M 42 68 L 42 72 L 64 72 L 64 68 Z M 16.015625 87.921875 C 16.664062 87.96875 17.320312 88 18 88 C 18.679688 88 19.335938 87.96875 19.984375 87.921875 C 19.984375 87.953125 20 87.96875 20 88 C 20 89.132812 19.132812 90 18 90 C 16.867188 90 16 89.132812 16 88 C 16 87.96875 16.015625 87.953125 16.015625 87.921875 Z M 80.015625 87.921875 C 80.664062 87.96875 81.320312 88 82 88 C 82.679688 88 83.335938 87.96875 83.984375 87.921875 C 83.984375 87.953125 84 87.96875 84 88 C 84 89.132812 83.132812 90 82 90 C 80.867188 90 80 89.132812 80 88 C 80 87.96875 80.015625 87.953125 80.015625 87.921875 Z M 80.015625 87.921875 "/>
</g>
</svg>
